# xmcd
#
# Track frame offsets:
#	150
#	14143
#	23535
#	39789
#	54586
#	69545
#	86108
#	105303
#	123017
#	134458
#	150148
#	164270
#	177607
#	193424
#	207820
#	221214
#	235447
#	250268
#	263872
#	279554
#	298047
#	314587
#	331741
#
# Disc length: 4631 seconds
#
# Revision: 1
# Processed by: cddbd v1.5.2PL0 Copyright (c) Steve Scherf et al.
# Submitted via: audiograbber 1.83.01
#
DISCID=52121517
DTITLE=Diamond Back of Texas - Diamond Back of Texas 008
DYEAR=2006
DGENRE=Country
TTITLE0=Is That Old House Still Standing  - Wayne Baker Jr
TTITLE1=I Lost My Ego  - Ray Sanders
TTITLE2=A Million Conversations - Terry Robichaud Smith
TTITLE3=Country Loving Boy - Bruce Stephens
TTITLE4=My Heartache  - Le Naye Pearson
TTITLE5=Ride Train Ride  - Lance Miller
TTITLE6=Pourin Rain - Jackie Cook
TTITLE7=Jack And Coke Nite  - Sean Kristopher
TTITLE8=Gold Cigarette Lighter  - Lawton Williams
TTITLE9=Bag Of Chips  - Bruce Greaves
TTITLE10=Roxie Anna Brown  - Lance Miller
TTITLE11=The Shade  - Noel Parlane
TTITLE12=The Water´s Getting Cool In The Pool  - Mitch Snow
TTITLE13=Face Saving Heart Breaking Lies  - Marion Randell
TTITLE14=Only Car In Your Garage  - Dr Fry´s Texas Medicine Band
TTITLE15=All I Want Is You  - Jason Jones
TTITLE16=On A South Texas Highway  - Captain T
TTITLE17=You´re Gonna Pay  - Bubba Brown
TTITLE18=She Said Yes  - Lance Miller
TTITLE19=I Will Be Your Angel  - Terry Robichaud Smith
TTITLE20=Epitaph  - Glenn Erickson
TTITLE21=A Good Hearted Woman - B. Jeff Stone
TTITLE22=Women Wild, Whiskey Strong  - B. Jeff Stone
EXTD=
EXTT0=
EXTT1=
EXTT2=
EXTT3=
EXTT4=
EXTT5=
EXTT6=
EXTT7=
EXTT8=
EXTT9=
EXTT10=
EXTT11=
EXTT12=
EXTT13=
EXTT14=
EXTT15=
EXTT16=
EXTT17=
EXTT18=
EXTT19=
EXTT20=
EXTT21=
EXTT22=
PLAYORDER=
